<svg width="1496" height="381" viewBox="0 0 1496 381" fill="none" xmlns="http://www.w3.org/2000/svg">
<path d="M17 381C213.5 287.5 90.5 204 183.5 113C271.5 41 338.5 149.5 338.5 0C355 0 369 30 369 30C369 30 451.5 38 390 60C348 70.5 396 138 298 196C289.667 188 271.8 172.7 267 175.5C261 179 298 187 298 242.5C298 298 267.996 336.5 298 336.5C318 336.5 339.5 331.5 339.5 344.5C339.5 360 262 361.5 262 332.5C262 294.5 259.3 217.5 220.5 217.5C207.833 219.833 180 235.5 170 279.5C225 279.5 239.5 277.5 239.5 300.5H159C144 327.333 94.6 381 17 381Z" fill="#FF6F00"/>
<path fill-rule="evenodd" clip-rule="evenodd" d="M1098.52 201.165C1088.06 206.941 1079.75 215.393 1073.59 226.52C1071.31 230.673 1069.46 235.167 1068.03 240C1146.5 230 1189 227.5 1189 237.5C1189 242.299 1176.57 247.764 1163.3 253.596C1148.92 259.917 1133.56 266.669 1132 273.466C1129.6 283.92 1174.14 297.178 1196.71 302.5C1201.09 292.473 1203.28 280.711 1203.28 267.216C1203.28 251.212 1200.2 237.647 1194.04 226.52C1187.89 215.393 1179.56 206.941 1169.04 201.165C1158.58 195.388 1146.84 192.5 1133.82 192.5C1120.75 192.5 1108.98 195.388 1098.52 201.165ZM1160 223.5C1138 223.5 1114.17 226.167 1105 227.5C1105 222 1112.5 206 1133.82 205C1150.88 204.2 1158.38 217 1160 223.5Z" fill="#FFC107"/>
<path fill-rule="evenodd" clip-rule="evenodd" d="M0 339.943V194.489H35.1563V255.994H37.0739L85.1563 194.489H126.562L75 259.403L104.727 300.525L77.6789 326.5L49.2188 282.77L35.1563 300.525V339.943H0ZM442.52 194.489V339.943H412.689L354.806 255.994H353.882V339.943C347.364 339.943 347.579 337.138 347.849 333.632C348.298 327.79 348.896 320 318.726 320V194.489H348.982L406.226 278.295H407.433V194.489H442.52ZM560.079 242.003C559.274 239.02 558.09 236.392 556.528 234.119C554.965 231.799 553.048 229.834 550.775 228.224C548.502 226.615 545.898 225.407 542.963 224.602C540.027 223.75 536.807 223.324 533.303 223.324C526.249 223.324 520.141 225.028 514.98 228.437C509.866 231.847 505.912 236.818 503.119 243.352C500.325 249.839 498.929 257.723 498.929 267.003C498.929 276.33 500.278 284.285 502.977 290.866C505.676 297.448 509.582 302.467 514.696 305.923C519.809 309.38 526.012 311.108 533.303 311.108C539.743 311.108 545.188 310.066 549.639 307.983C554.137 305.852 557.546 302.845 559.866 298.963C562.071 295.274 563.228 290.965 563.338 286.037H534.511V260.398H597.224V279.645C597.224 292.666 594.454 303.816 588.914 313.096C583.422 322.377 575.846 329.503 566.187 334.474C556.575 339.446 545.52 341.932 533.02 341.932C519.147 341.932 506.954 338.925 496.443 332.912C485.931 326.898 477.74 318.328 471.869 307.202C465.998 296.027 463.062 282.77 463.062 267.429C463.062 255.497 464.839 244.915 468.389 235.682C471.94 226.401 476.888 218.542 483.232 212.102C489.625 205.663 497.011 200.786 505.392 197.472C513.82 194.157 522.888 192.5 532.594 192.5C541.021 192.5 548.857 193.707 556.102 196.122C563.393 198.537 569.833 201.946 575.42 206.349C581.054 210.753 585.624 215.985 589.127 222.045C592.631 228.106 594.809 234.758 595.661 242.003H560.079ZM755.232 267.216C755.232 283.22 752.154 296.785 745.999 307.912C739.844 319.039 731.51 327.49 720.999 333.267C710.535 339.043 698.792 341.932 685.772 341.932C672.703 341.932 660.937 339.02 650.473 333.196C640.009 327.372 631.7 318.92 625.544 307.841C619.436 296.714 616.382 283.172 616.382 267.216C616.382 251.212 619.436 237.647 625.544 226.52C631.7 215.393 640.009 206.941 650.473 201.165C660.937 195.388 672.703 192.5 685.772 192.5C698.792 192.5 710.535 195.388 720.999 201.165C731.51 206.941 739.844 215.393 745.999 226.52C752.154 237.647 755.232 251.212 755.232 267.216ZM719.294 267.216C719.294 257.746 717.945 249.744 715.246 243.21C712.594 236.676 708.759 231.728 703.74 228.366C698.769 225.005 692.779 223.324 685.772 223.324C678.811 223.324 672.822 225.005 667.803 228.366C662.784 231.728 658.925 236.676 656.226 243.21C653.575 249.744 652.249 257.746 652.249 267.216C652.249 276.686 653.575 284.687 656.226 291.222C658.925 297.755 662.784 302.703 667.803 306.065C672.822 309.427 678.811 311.108 685.772 311.108C692.779 311.108 698.769 309.427 703.74 306.065C708.759 302.703 712.594 297.755 715.246 291.222C717.945 284.687 719.294 276.686 719.294 267.216ZM913.044 267.216C913.044 283.22 909.967 296.785 903.811 307.912C897.656 319.039 889.323 327.49 878.811 333.267C868.347 339.043 856.605 341.932 843.584 341.932C830.516 341.932 818.75 339.02 808.286 333.196C797.822 327.372 789.513 318.92 783.357 307.841C777.25 296.714 774.195 283.172 774.195 267.216C774.195 251.212 777.25 237.647 783.357 226.52C789.513 215.393 797.822 206.941 808.286 201.165C818.75 195.388 830.516 192.5 843.584 192.5C856.605 192.5 868.347 195.388 878.811 201.165C889.323 206.941 897.656 215.393 903.811 226.52C909.967 237.647 913.044 251.212 913.044 267.216ZM877.107 267.216C877.107 257.746 875.757 249.744 873.058 243.21C870.407 236.676 866.572 231.728 861.553 228.366C856.581 225.005 850.592 223.324 843.584 223.324C836.624 223.324 830.634 225.005 825.615 228.366C820.596 231.728 816.737 236.676 814.039 243.21C811.387 249.744 810.061 257.746 810.061 267.216C810.061 276.686 811.387 284.687 814.039 291.222C816.737 297.755 820.596 302.703 825.615 306.065C830.634 309.427 836.624 311.108 843.584 311.108C850.592 311.108 856.581 309.427 861.553 306.065C866.572 302.703 870.407 297.755 873.058 291.222C875.757 284.687 877.107 276.686 877.107 267.216ZM933.57 339.943V194.489H993.655C1004.55 194.489 1013.94 196.454 1021.85 200.384C1029.8 204.266 1035.94 209.853 1040.24 217.145C1044.55 224.389 1046.71 232.983 1046.71 242.926C1046.71 253.011 1044.51 261.581 1040.1 268.636C1035.73 275.593 1029.54 280.917 1021.53 284.607L1051.68 339.943H1013.33L986.733 290.156H968.726V339.943H933.57ZM986.056 262.457H968.726V222.827H986.056C991.311 222.827 995.738 223.584 999.337 225.099C1002.94 226.567 1005.66 228.793 1007.5 231.776C1009.35 234.711 1010.27 238.428 1010.27 242.926C1010.27 247.424 1009.35 251.117 1007.5 254.006C1005.66 256.847 1002.94 258.977 999.337 260.398C995.786 261.771 991.359 262.457 986.056 262.457ZM1246.67 339.943H1208.89L1257.97 194.489H1304.77L1353.85 339.943H1316.06L1306.47 309.403H1256.24L1246.67 339.943ZM1281.9 231.136L1298.09 282.699H1264.61L1280.76 231.136H1281.9ZM1423.27 339.943H1369.51V194.489H1423.2C1438.02 194.489 1450.78 197.401 1461.48 203.224C1472.23 209.001 1480.51 217.334 1486.34 228.224C1492.16 239.067 1495.07 252.041 1495.07 267.145C1495.07 282.296 1492.16 295.317 1486.34 306.207C1480.56 317.097 1472.3 325.454 1461.55 331.278C1450.8 337.055 1438.04 339.943 1423.27 339.943ZM1404.66 309.971H1421.92C1430.07 309.971 1436.95 308.598 1442.59 305.852C1448.27 303.059 1452.56 298.537 1455.44 292.287C1458.38 285.99 1459.85 277.609 1459.85 267.145C1459.85 256.681 1458.38 248.348 1455.44 242.145C1452.51 235.895 1448.18 231.397 1442.45 228.651C1436.76 225.857 1429.76 224.46 1421.42 224.46H1404.66V309.971Z" fill="black"/>
<path d="M1098.52 333.196C1108.98 339.02 1120.75 341.932 1133.82 341.932C1136.51 341.932 1139.14 341.809 1141.72 341.563L1133.82 337C1108.55 320.5 1066.45 288.12 1106.5 265C1118.94 257.817 1138.13 251.027 1152.97 245.774C1185.92 234.117 1197.48 230.026 1066.51 246C1065.12 252.518 1064.43 259.59 1064.43 267.216C1064.43 283.172 1067.48 296.714 1073.59 307.841C1079.75 318.92 1088.06 327.372 1098.52 333.196Z" fill="#FFC107"/>
</svg>
