<svg width="863" height="1024" viewBox="0 0 863 1024" fill="none" xmlns="http://www.w3.org/2000/svg">
<path fill-rule="evenodd" clip-rule="evenodd" d="M216.687 885.435C244.07 889.428 285.62 887.099 302.971 885.435C303.685 886.148 304.255 890.427 300.832 901.836C296.554 916.098 289.423 938.204 283.005 949.613C277.871 958.741 280.866 971.482 283.005 976.711C278.726 993.112 465.556 1026.63 516.899 1023.06C557.973 1020.21 556.357 988.12 550.414 972.432C588.446 973.859 676.489 976.711 724.409 976.711C784.308 964.16 717.991 893.279 668.075 893.279H593.2C684.476 815.124 678.771 739.964 664.509 712.154L757.211 675.786C760.063 674.075 763.153 670.794 764.342 669.368L777.891 639.418C818.537 626.583 824.955 599.485 826.381 581.658C828.092 566.255 821.389 553.847 817.824 549.569C830.422 521.758 856.616 462.857 860.609 449.736C864.603 436.615 856.568 435.712 852.052 436.9L749.367 486.104L640.264 460.432C634.559 457.01 630.281 459.957 628.854 461.859L600.331 523.898C584.357 514.2 565.627 454.728 558.258 426.204C579.366 428.486 621.724 411.942 640.264 403.385C697.311 391.976 712.286 340.633 713.712 309.97C715.139 279.307 678.771 266.471 675.919 265.758C673.066 265.045 638.838 243.652 649.534 239.374C660.23 235.095 752.219 187.318 725.122 160.221C703.444 138.543 640.026 119.812 611.027 113.157C568.812 24.7331 481.72 7.38124 443.451 9.75821C410.363 -12.4903 391.157 12.8483 385.69 28.2986C302.971 61.3861 285.62 150 287.283 190.17C234.8 236.379 217.876 275.979 215.974 290.003C222.82 321.379 310.102 316.388 352.888 309.97C356.881 344.198 384.502 372.247 397.813 381.992L394.96 397.68C339.854 386.608 304.089 389.483 279.439 401.068C220.11 420.323 208.093 481.945 209.5 510.349C208.818 512.014 208.125 513.678 207.417 515.34C177.643 597.384 179.178 608.215 182.973 634.983C183.268 637.065 183.576 639.242 183.885 641.558C187.308 667.229 233.802 687.909 256.62 695.04C250.888 747.081 194.29 744.221 156.788 708.588C141.27 693.845 127.551 637.279 127.551 583.797C127.551 548.856 91.8963 498.939 57.6678 478.26C23.4394 457.58 -16.4937 459.006 9.17759 491.808C34.8489 524.611 49.1107 565.97 40.5536 632.288C31.9965 698.605 41.9798 741.391 73.3559 797.012C104.732 852.633 182.459 880.444 216.687 885.435ZM424.5 896.5L398 921.5C404 923 468.5 924 476 924C482.4 911.2 490 893.5 488.5 894C487 894.5 435.667 897.667 424.5 896.5Z" fill="black"/>
<path d="M209.5 510.349C208.818 512.014 208.125 513.678 207.417 515.34C177.643 597.384 179.178 608.215 182.973 634.983C183.268 637.065 183.576 639.242 183.885 641.558C187.308 667.229 233.802 687.909 256.62 695.04C250.888 747.081 194.29 744.221 156.788 708.588C141.27 693.845 127.551 637.279 127.551 583.797C127.551 548.856 91.8963 498.939 57.6678 478.26C23.4394 457.58 -16.4937 459.006 9.17759 491.808C34.8489 524.611 49.1107 565.97 40.5536 632.288C31.9965 698.605 41.9798 741.391 73.3559 797.012C104.732 852.633 182.459 880.444 216.687 885.435C244.07 889.428 285.62 887.099 302.971 885.435C303.685 886.148 304.255 890.427 300.832 901.836C296.554 916.098 289.423 938.204 283.005 949.613C277.871 958.741 280.866 971.482 283.005 976.711C278.726 993.112 465.556 1026.63 516.899 1023.06C557.973 1020.21 556.357 988.12 550.414 972.432C588.446 973.859 676.489 976.711 724.409 976.711C784.308 964.16 717.991 893.279 668.075 893.279H593.2C684.476 815.124 678.771 739.964 664.509 712.154L757.211 675.786C760.063 674.075 763.153 670.794 764.342 669.368L777.891 639.418C818.537 626.583 824.955 599.485 826.381 581.658C828.092 566.255 821.389 553.847 817.824 549.569C830.422 521.758 856.616 462.857 860.609 449.736C864.603 436.615 856.568 435.712 852.052 436.9L749.367 486.104L640.264 460.432C634.559 457.01 630.281 459.957 628.854 461.859L600.331 523.898C584.357 514.2 565.627 454.728 558.258 426.204C579.366 428.486 621.724 411.942 640.264 403.385C697.311 391.976 712.286 340.633 713.712 309.97C715.139 279.307 678.771 266.471 675.919 265.758C673.066 265.045 638.838 243.652 649.534 239.374C660.23 235.095 752.219 187.318 725.122 160.221C703.444 138.543 640.026 119.812 611.027 113.157C568.812 24.7331 481.72 7.38124 443.451 9.75821C410.363 -12.4903 391.157 12.8483 385.69 28.2986C302.971 61.3861 285.62 150 287.283 190.17C234.8 236.379 217.876 275.979 215.974 290.003C222.82 321.379 310.102 316.388 352.888 309.97C356.881 344.198 384.502 372.247 397.813 381.992L394.96 397.68C339.854 386.608 304.089 389.483 279.439 401.068M209.5 510.349C227.69 465.912 237.403 420.825 279.439 401.068M209.5 510.349C208.093 481.945 220.11 420.323 279.439 401.068M398 921.5L424.5 896.5C435.667 897.667 487 894.5 488.5 894C490 893.5 482.4 911.2 476 924C468.5 924 404 923 398 921.5Z" stroke="black"/>
<path d="M29.5237 487.329C39.0316 501.353 58.4752 533.822 60.1866 551.507C60.8078 557.926 61.429 564.645 61.9454 571.474C73.6875 672.02 69.4568 732.632 107.251 769C137.486 798.094 173.093 800.614 187.117 798.237C216.211 796.525 222.059 767.17 221.345 752.706C197.817 755.714 167.415 751.226 145.045 723.362C133.397 711.715 110.674 671.449 112.955 603.563C115.237 535.676 58.2851 497.787 29.5237 487.329Z" fill="#FF8832"/>
<path d="M62.3259 620.677C60.1866 642.07 15.9749 880.955 289.089 865.981C272.926 847.202 242.025 796.811 247.73 745.468C241.277 748.435 232.018 751.342 221.345 752.706C222.059 767.17 216.211 796.525 187.117 798.237C173.093 800.614 137.486 798.094 107.251 769C69.4568 732.632 73.6875 672.02 61.9454 571.474C63.2075 588.161 63.844 605.496 62.3259 620.677Z" fill="#C46929"/>
<path d="M331.162 681.29C344.473 669.642 385.174 651.607 436.699 681.29C437.342 681.66 437.978 682.037 438.607 682.42C441.774 679.459 447.823 672.958 446.682 670.64C434.842 668.388 422.555 664.734 410.315 659.184C361.254 636.935 359.448 593.817 364.677 575.039C385.214 652.623 464.034 660.61 500.877 654.905C507.533 652.766 524.41 648.63 538.671 649.201C553.504 653.764 560.064 654.43 561.49 654.192C591.44 656.331 597.858 646.575 598.571 646.348C590.014 649.201 575.039 649.438 568.621 649.201C573.318 648.566 577.866 647.331 582.17 645.716C546.801 633.23 515.498 639.32 500.877 642.783C479.802 647.774 442.404 639.217 412.454 619.964C351.984 577.159 374.898 520.106 393.914 496.93C386.505 492.079 379.558 488.84 375.373 487.329C286.95 666.315 277.68 675.585 267.696 741.903C257.713 808.22 316.187 862.415 322.605 878.103C327.739 890.653 311.908 934.2 303.351 954.404C301.687 956.781 299.358 962.961 303.351 968.665C307.344 974.37 428.618 993.386 488.755 1002.18C488.337 1001.32 487.86 1000.39 487.329 999.403C398.905 981.501 332.08 960.255 332.588 958.682C346.85 914.471 353.981 898.07 343.997 857.423C275.54 786.114 306.916 710.289 331.162 681.29Z" fill="#C46929"/>
<path d="M513 605.702C433.847 599.284 430.994 537.958 416.02 517.279C409.898 508.825 401.654 501.998 393.914 496.93C374.898 520.106 351.984 577.159 412.454 619.964C442.404 639.217 479.802 647.774 500.877 642.783C515.498 639.32 546.801 633.23 582.17 645.716C597.21 640.073 609.269 629.787 614.259 624.242C582.313 625.383 579.555 621.865 582.17 619.964L616.398 617.825C617.111 597.145 592.866 592.866 560.064 597.145C545.802 599.005 520.131 605.464 513 605.702Z" fill="#FF8832"/>
<path d="M456.666 968.665C492.035 970.377 504.205 991.722 505.869 1002.18C512.762 1002.42 528.688 1001.9 537.245 997.902C545.089 994.242 515.139 947.273 477.345 943.707L353.981 937.29C388.447 909.004 459.233 840.167 466.649 791.106C475.919 729.78 425.29 669.88 331.162 681.29C306.916 710.289 275.54 786.114 343.997 857.423C353.981 898.07 346.85 914.471 332.588 958.682C332.08 960.255 398.905 981.501 487.329 999.403C481.516 988.572 469.211 970.756 456.666 968.665Z" fill="#FF8832"/>
<path d="M537.245 670.593C541.238 663.177 532.729 664.651 527.975 666.315C513.882 671.488 482.303 677.412 446.682 670.64C447.823 672.958 441.774 679.459 438.607 682.42C444.183 685.817 449.249 689.736 453.813 694.093C461.182 695.53 501.591 695.552 505.156 695.552C508.721 695.552 499.44 718.37 602.487 735.485C603.588 724.283 603.598 713.839 602.85 704.822C587.162 701.732 552.933 694.981 541.524 692.699C526.549 692.699 532.254 679.864 537.245 670.593Z" fill="#D0A363"/>
<path d="M477.852 821.769C470.479 843.363 457.865 863.226 440.265 878.103C531.224 877.369 574.393 829.632 592.362 780.409C550.884 822.054 498.74 825.334 477.852 821.769Z" fill="#D0A363"/>
<path d="M505.156 695.552C501.591 695.552 461.182 695.53 453.813 694.093C485.891 724.713 493.15 776.966 477.852 821.769C498.74 825.334 550.884 822.054 592.362 780.409C597.942 765.123 601.092 749.694 602.487 735.485C499.44 718.37 508.721 695.552 505.156 695.552Z" fill="#FFCF8C"/>
<path d="M259.139 673.446L317.613 484.476C318.619 479.548 318.518 472.227 315.473 464.903C302.353 523.406 293.368 537.507 290.515 537.245C289.374 559.494 273.876 587.875 266.27 599.284C236.035 639.217 208.156 615.21 199.362 600.71C199.953 599.284 195.674 605.702 201.574 629.947C208.037 649.908 225.312 669.158 259.139 673.446Z" fill="#678091"/>
<path d="M290.515 537.245C277.917 545.327 246.874 555.5 223.485 531.54C216.829 546.278 202.662 580.886 199.239 601.423C197.82 609.943 198.363 620.033 201.574 629.947C195.674 605.702 199.953 599.284 199.362 600.71C208.156 615.21 236.035 639.217 266.27 599.284C273.876 587.875 289.374 559.494 290.515 537.245Z" fill="#96C1DD"/>
<path d="M281.958 440.978C260.28 438.125 246.304 447.871 242.025 453.1L226.337 498.025C228.239 511.574 243.736 538.386 290.515 537.245C293.368 537.507 302.353 523.406 315.473 464.903C311.323 454.919 301.703 444.927 281.958 440.978Z" fill="#96C1DD"/>
<path d="M384.643 433.847L389.635 417.446C378.463 412.692 347.277 404.61 311.908 410.315C276.539 416.02 270.073 421.724 271.262 423.864C294.651 419.87 319.99 440.265 329.735 450.961C345.138 433.847 372.759 432.421 384.643 433.847Z" fill="#96C1DD" stroke="black"/>
<path fill-rule="evenodd" clip-rule="evenodd" d="M422.437 497.887C434.776 511.5 446.552 530.067 455.953 555.072C462.257 530.339 448.574 483.572 415.306 465.334C428.998 475.692 425.765 491.352 422.437 497.887Z" fill="#678091"/>
<path d="M355.407 463.797C369.908 463 397.337 470.194 422.437 497.887C425.765 491.352 428.998 475.692 415.306 465.334C399.659 456.756 379.678 454.49 355.407 463.797Z" fill="#96C1DD"/>
<path d="M691.273 956.543C687.945 946.798 674.016 927.164 644.922 926.593C638.504 926.467 691.273 920.889 701.256 956.543H731.919C726.452 942.994 706.961 915.184 672.733 912.331H582.17C618.11 927.734 645.635 947.673 654.905 955.717L691.273 956.543Z" fill="#FF8832"/>
<path d="M545.089 912.331C565.769 880.955 691.273 809.646 641.357 711.953L624.242 709.1C629.234 748.32 614.116 838.74 513.713 886.66L496.599 926.593C506.107 930.634 526.977 941.568 534.393 952.978L654.905 955.717C645.635 947.673 618.11 927.734 582.17 912.331H545.089Z" fill="#C46929"/>
<path d="M625.744 516.565L597.145 578.604C628.97 578.604 647.684 623.316 622.127 651.34C634.125 657.615 640.897 659.184 642.783 659.184C642.783 657.33 642.615 655.309 642.44 653.194C641.807 645.542 641.071 636.651 647.774 629.947C667.167 608.204 662.39 595.662 658.077 584.34C657.156 581.923 656.257 579.562 655.618 577.178C654.287 572.211 649.914 538.671 662.749 518.705C646.205 514.141 631.186 515.377 625.744 516.565Z" fill="#839D52"/>
<path d="M677.011 486.916L643.496 478.058L631.99 503.017C647.316 500.735 662.685 504.918 668.454 507.295C668.454 501.591 674.159 491.332 677.011 486.916Z" fill="#839D52"/>
<path d="M713.379 571.331L743.329 504.443L689.134 490.12C687.422 500.34 681.29 511.058 678.437 515.139C690.476 518.624 690.41 523.235 690.309 530.336C690.181 539.217 689.998 551.993 713.379 571.331Z" fill="#839D52"/>
<path d="M653.479 662.749C655.761 664.461 666.79 664.096 672.019 663.7L707.674 584.071C696.265 581.014 674.872 536.532 673.446 525.836C659.184 550.538 662.274 567.98 665.602 573.613C682.003 597.145 668.454 623.529 659.897 632.086C653.051 638.932 652.766 655.381 653.479 662.749Z" fill="#839D52"/>
<path d="M753.312 504.443L720.992 578.604C731.053 581.529 756.877 568.388 779.696 492.429L753.312 504.443Z" fill="#839D52"/>
<path d="M797.524 552.22L833.178 468.075L793.245 486.259C779.696 520.844 758.382 595.719 714.156 594.292L694.578 639.217C712.666 639.217 731.919 602.136 758.382 602.136C760.896 583.706 770.973 563.399 797.524 552.22Z" fill="#839D52"/>
<path d="M714.156 594.292C758.382 595.719 779.696 520.844 793.245 486.259L779.696 492.429C756.877 568.388 731.053 581.529 720.992 578.604L714.156 594.292Z" fill="#897240"/>
<path d="M673.446 687.708L747.607 660.61L760.443 632.086C758.232 624.716 756.792 613.802 758.382 602.136C731.919 602.136 712.666 639.217 694.578 639.217L673.446 687.708Z" fill="#526C9D"/>
<path d="M779.696 598.571C783.975 599.997 795.67 599.141 808.22 584.309C810.634 581.457 811.548 567.67 805.368 568.621C795.147 571.949 775.703 582.598 779.696 598.571Z" fill="#FF8832"/>
<path d="M803.941 598.571C795.384 604.038 776.844 613.546 773.992 613.546C769.482 613.546 785.401 635.652 803.941 598.571Z" fill="#FF8832"/>
<path fill-rule="evenodd" clip-rule="evenodd" d="M642.783 659.184L653.479 662.749C652.766 655.381 653.051 638.932 659.897 632.086C668.454 623.529 682.003 597.145 665.602 573.613C662.274 567.98 659.184 550.538 673.446 525.836C674.872 536.532 696.265 581.014 707.674 584.071L713.379 571.331C689.998 551.993 690.181 539.217 690.309 530.336C690.41 523.235 690.476 518.624 678.437 515.139C681.29 511.058 687.422 500.34 689.134 490.12L677.011 486.916C674.159 491.332 668.454 501.591 668.454 507.295C662.685 504.918 647.316 500.735 631.99 503.017L625.744 516.565C631.186 515.377 646.205 514.141 662.749 518.705C649.914 538.671 654.287 572.211 655.618 577.178C656.257 579.562 657.156 581.923 658.077 584.34C662.39 595.662 667.167 608.204 647.774 629.947C641.071 636.651 641.807 645.542 642.44 653.194C642.615 655.309 642.783 657.33 642.783 659.184Z" fill="#897240"/>
<path d="M556.499 673.446C556.499 675.11 576.75 681.86 657.758 695.552L672.019 663.7C666.79 664.096 655.761 664.461 653.479 662.749L642.783 659.184C640.897 659.184 634.125 657.615 622.127 651.34C610.461 664.131 589.573 673.446 556.499 673.446Z" fill="#526C9D"/>
<path fill-rule="evenodd" clip-rule="evenodd" d="M567.908 349.702C589.586 363.393 633.988 364.915 653.479 363.964C662.036 349.702 662.749 340.432 660.61 339.006C621.39 326.883 620.837 297.497 634.939 286.95C643.022 280.904 654.216 280.904 664.175 278.393C639.894 280.214 621.814 225.709 606.415 190.1C529.972 195.339 442.404 225.473 408.175 239.886C382.504 304.92 405.323 336.866 428.142 359.685C444.543 376.086 447.396 383.93 443.83 394.627L419.585 447.489C478.653 480.255 479.995 544.196 472.354 574.326C474.778 575.445 478.207 576.837 482.337 578.262C490.656 542.68 502.304 454.699 482.337 387.433C480.844 383.288 479.656 379.446 478.772 376.086C468.075 339.719 478.772 318.326 502.304 316.9C525.836 315.474 540.811 332.588 567.908 349.702ZM490.894 229.189C469.501 229.189 464.51 296.22 499.451 296.22C524.409 296.22 530.114 229.189 490.894 229.189ZM590.727 254.861C601.566 265.7 610.931 266.032 614.259 264.844C609.98 262.942 601.281 258.569 600.71 256.287C623.529 244.877 605.758 205.838 592.866 209.223C581.457 212.218 577.178 241.312 590.727 254.861Z" fill="#FF8832"/>
<path d="M416.733 387.496C418.444 396.623 407.938 426.003 402.471 439.552C408.652 441.922 414.346 444.583 419.585 447.489L443.83 394.627C447.396 383.93 444.543 376.086 428.142 359.685C405.323 336.866 382.504 304.92 408.175 239.886C442.404 225.473 529.972 195.339 606.415 190.1C603.725 183.879 601.116 178.235 598.571 173.568C535.819 172.998 433.134 202.805 389.635 217.78C346.85 306.203 388.922 357.784 415.306 372.521C458.805 389.635 434.084 389.635 416.733 387.496Z" fill="#C46929"/>
<path fill-rule="evenodd" clip-rule="evenodd" d="M490.894 229.189C469.501 229.189 464.51 296.22 499.451 296.22C524.409 296.22 530.114 229.189 490.894 229.189ZM497.5 251.084C488.696 254.199 494.51 271.032 503.451 268.584C511.148 266.477 506.304 247.97 497.5 251.084Z" fill="black"/>
<path d="M497.5 251.084C488.696 254.199 494.51 271.032 503.451 268.584C511.148 266.477 506.304 247.97 497.5 251.084Z" fill="white"/>
<path d="M478.772 376.086C491.845 392.012 532.967 419.728 592.866 403.184C576.465 401.758 536.675 390.491 508.721 356.833C493.633 368.568 500.135 332.977 527.262 339.006C532.967 340.273 539.955 346.279 527.975 349.702C547.164 384.11 632.462 410.201 653.479 363.964C633.988 364.915 589.586 363.393 567.908 349.702C540.811 332.588 525.836 315.474 502.304 316.9C478.772 318.326 468.075 339.719 478.772 376.086Z" fill="#FFCF8C"/>
<path d="M539.384 426.003C524.172 423.15 490.752 409.174 478.772 376.086C479.656 379.446 480.844 383.288 482.337 387.433C491.832 413.797 513.66 452.449 548.075 457.379C544.434 443.076 541.342 431.712 539.384 426.003Z" fill="#D0A363"/>
<path d="M527.262 585.735C548.655 580.744 560.777 576.465 576.465 577.178C569.676 547.136 557.166 493.096 548.075 457.379C513.66 452.449 491.832 413.797 482.337 387.433C502.304 454.699 490.656 542.68 482.337 578.262C494 582.287 511.253 586.578 527.262 585.735Z" fill="#FFCF8C"/>
<path d="M597.858 224.911C590.014 224.911 589.301 237.033 598.571 237.033C605.702 237.033 605.702 224.911 597.858 224.911Z" fill="white"/>
<path d="M371.095 293.368C100.126 318.491 386.286 212.756 389.635 217.78C372.521 250.867 370.144 281.958 371.095 293.368Z" fill="#414141"/>
<path d="M598.571 173.568C700.861 173.568 714.27 192.275 622.103 226.337C619.726 222.296 611.692 206.085 598.571 173.568Z" fill="#414141"/>
<path fill-rule="evenodd" clip-rule="evenodd" d="M252.008 254.861C276.116 241.993 311.671 225.662 354.131 209.936C360.974 199.187 380.65 172 404.61 149.244C347.09 169.395 290.538 202.461 252.008 254.861Z" fill="#D5CBAA"/>
<path d="M688.421 158.593C689.371 158.118 669.167 156.434 588.588 121.513C546.511 119.291 474.839 124.641 404.61 149.244C380.65 172 360.974 199.187 354.131 209.936C448.151 175.115 576.024 143.267 688.421 158.593Z" fill="#F8E8B4"/>
<path d="M391.774 51.6295C384.881 69.9322 372.093 113.241 376.086 140.053C423.313 116.754 493.895 102.908 559.351 103.917C545.327 84.9829 505.584 43.3597 458.805 28.3363C454.856 28.1217 450.815 28.0385 446.682 28.0975C433.562 28.2849 421.451 30.3076 410.315 33.769C410.095 33.8374 409.875 33.9064 409.655 33.976C403.444 36.1994 395.217 46.5583 391.774 51.6295Z" fill="#F8E8B4"/>
<path fill-rule="evenodd" clip-rule="evenodd" d="M306.916 176.421L358.972 147.184C359.685 123.414 367.244 71.0256 391.774 51.6295C395.217 46.5583 403.444 36.1994 409.655 33.976C336.532 57.1569 305.681 142.457 306.916 176.421ZM331.875 126.504C323.318 126.504 323.318 140.766 331.875 140.766C340.432 140.766 342.571 126.504 331.875 126.504Z" fill="#D5CBAA"/>
<path d="M559.351 103.917C568.02 104.05 576.599 104.444 585.022 105.111C572.851 80.3176 531.184 32.2693 458.805 28.3363C505.584 43.3597 545.327 84.9829 559.351 103.917Z" fill="#FFF7DB"/>
<path d="M331.875 126.504C323.318 126.504 323.318 140.766 331.875 140.766C340.432 140.766 342.571 126.504 331.875 126.504Z" fill="black"/>
<path d="M657.045 376.086C651.34 382.504 667.028 377.513 677.011 363.964C679.537 360.536 681.926 357.244 684.086 353.847C680.803 358.535 669.88 362.538 666.315 363.251C663.89 368.016 661.401 370.459 657.045 376.086Z" fill="#FFCF8C"/>
<path d="M694.838 314.76C693.698 330.734 680.101 337.579 673.446 339.006C673.608 342.409 671.51 353.04 666.315 363.251C669.88 362.538 680.803 358.535 684.086 353.847C684.209 353.654 684.331 353.461 684.452 353.267C690.629 343.395 694.838 332.522 694.838 314.76Z" fill="#FF8832"/>
<path d="M581.457 530.114C583.834 536.532 587.162 551.507 587.162 551.507C587.162 551.507 594.064 550.081 592.153 542.95C590.625 537.245 584.385 532.016 581.457 530.114Z" fill="#FF8832" stroke="black"/>
</svg>
